# xmcd
#
# Track frame offsets:
#	183
#	33133
#	51620
#	67168
#	80655
#	99203
#
# Disc length: 1514 seconds
# Revision: 0
# Processed by: cddbd v1.5.2PL0 Copyright (c) Steve Scherf et al.
# Submitted via: dBpowerAMP V12.0
#
DISCID=4c05e806
DTITLE=Sybil - Walk On By [Single]
DYEAR=1990
DGENRE=R&B
TTITLE0=Walk On By [Club Version]
TTITLE1=Walk On By [Radio Version]
TTITLE2=Walk On By [Dub Version]
TTITLE3=Walk On By [Acapella]
TTITLE4=Walk On By [LP Version]
TTITLE5=Bad Beats Suite
EXTD=
EXTT0=
EXTT1=
EXTT2=
EXTT3=
EXTT4=
EXTT5=
PLAYORDER=
